<?xml version="1.0" encoding="UTF-8" standalone="no"?><!DOCTYPE svg PUBLIC "-//W3C//DTD SVG 1.1//EN" "http://www.w3.org/Graphics/SVG/1.1/DTD/svg11.dtd"><svg width="100%" height="100%" viewBox="0 0 167 250" version="1.1" xmlns="http://www.w3.org/2000/svg" xmlns:xlink="http://www.w3.org/1999/xlink" xml:space="preserve" xmlns:serif="http://www.serif.com/" style="fill-rule:evenodd;clip-rule:evenodd;stroke-linejoin:round;stroke-miterlimit:2;"><rect x="-54.167" y="0" width="250" height="250" style="fill:#ff4800;"/><rect x="31.283" y="47.852" width="29.297" height="125.488" style="fill:#fff;"/><rect x="62.533" y="175.293" width="51.27" height="29.297" style="fill:#fff;"/><rect x="11.263" y="81.298" width="96.436" height="29.297" style="fill:#fff;"/><path d="M130.019,93.706c3.663,-3.663 5.721,-8.63 5.721,-13.81c-0,-10.78 -8.752,-19.532 -19.531,-19.532c-5.18,0 -10.148,2.058 -13.811,5.721l5.248,5.248c2.271,-2.271 5.351,-3.547 8.563,-3.547c6.683,0 12.109,5.426 12.109,12.11c0,3.211 -1.276,6.291 -3.547,8.562l5.248,5.248Z" style="fill:#fff;"/><path d="M151.72,86.934c5.838,-5.838 9.117,-13.755 9.117,-22.011c0,-17.18 -13.948,-31.128 -31.128,-31.128c-8.255,-0 -16.173,3.279 -22.011,9.117l8.365,8.364c3.619,-3.619 8.528,-5.652 13.646,-5.652c10.652,-0 19.3,8.647 19.3,19.299c-0,5.118 -2.034,10.027 -5.653,13.647l8.364,8.364Z" style="fill:#fff;"/><path d="M83.047,183.874l-31.048,-31.048l-20.716,20.716l31.048,31.048l20.716,-20.716Z" style="fill:#fff;"/></svg>