<?xml version="1.0" encoding="UTF-8" standalone="no"?><!DOCTYPE svg PUBLIC "-//W3C//DTD SVG 1.1//EN" "http://www.w3.org/Graphics/SVG/1.1/DTD/svg11.dtd"><svg width="100%" height="100%" viewBox="0 0 3200 3200" version="1.1" xmlns="http://www.w3.org/2000/svg" xmlns:xlink="http://www.w3.org/1999/xlink" xml:space="preserve" xmlns:serif="http://www.serif.com/" style="fill-rule:evenodd;clip-rule:evenodd;stroke-linejoin:round;stroke-miterlimit:2;"><rect x="0" y="0" width="3200" height="3200" style="fill:#ff4800;"/><rect x="1093.75" y="612.5" width="375" height="1606.25" style="fill:#fff;"/><rect x="1493.75" y="2243.75" width="656.25" height="375" style="fill:#fff;"/><rect x="837.5" y="1040.62" width="1234.38" height="375" style="fill:#fff;"/><path d="M2357.58,1199.44c46.884,-46.884 73.224,-110.472 73.224,-176.776c-0,-137.979 -112.022,-250 -250,-250c-66.304,-0 -129.893,26.339 -176.777,73.223l67.175,67.175c29.068,-29.068 68.493,-45.398 109.602,-45.398c85.547,-0 155,69.453 155,155c-0,41.108 -16.331,80.533 -45.399,109.601l67.175,67.175Z" style="fill:#fff;"/><path d="M2635.35,1112.75c74.721,-74.721 116.699,-176.065 116.699,-281.737c0,-219.904 -178.533,-398.438 -398.437,-398.438c-105.672,0 -207.016,41.978 -281.738,116.7l107.06,107.06c46.328,-46.327 109.161,-72.354 174.678,-72.354c136.34,0 247.031,110.691 247.031,247.032c0,65.516 -26.026,128.35 -72.354,174.677l107.061,107.06Z" style="fill:#fff;"/><path d="M1756.34,2353.59l-397.422,-397.422l-265.165,265.165l397.422,397.422l265.165,-265.165Z" style="fill:#fff;"/></svg>